<?xml version="1.0" standalone="no"?>
<!DOCTYPE svg PUBLIC "-//W3C//DTD SVG 20010904//EN"
 "http://www.w3.org/TR/2001/REC-SVG-20010904/DTD/svg10.dtd">
<svg version="1.0" xmlns="http://www.w3.org/2000/svg"
 width="70.000000pt" height="70.000000pt" viewBox="0 0 70.000000 70.000000"
 preserveAspectRatio="xMidYMid meet">
<metadata>
Created by potrace 1.11, written by Peter Selinger 2001-2013
</metadata>
<g transform="translate(0.000000,70.000000) scale(0.100000,-0.100000)"
fill="#000000" stroke="none">
<path d="M248 613 c6 -2 9 -10 6 -15 -4 -7 -2 -8 5 -4 13 9 5 26 -12 25 -9 0
-8 -2 1 -6z"/>
<path d="M265 591 c-16 -21 -20 -44 -22 -113 -1 -57 2 -87 8 -85 6 1 20 -10
32 -25 18 -24 18 -29 6 -45 -13 -16 -12 -17 2 -5 19 14 49 6 49 -13 0 -7 7
-16 16 -19 8 -3 12 -10 9 -16 -3 -5 -1 -10 5 -10 6 0 8 -5 5 -10 -3 -5 -2 -10
4 -10 10 0 7 -31 -4 -50 -17 -27 -65 9 -65 48 0 15 -6 22 -18 22 -10 0 -24 6
-31 12 -11 10 -13 10 -7 1 4 -8 1 -13 -8 -13 -9 0 -16 -3 -17 -7 0 -5 -2 -19
-3 -31 -2 -13 -9 -28 -17 -34 -11 -8 -10 -9 4 -4 12 4 21 -1 27 -17 5 -12 17
-32 26 -45 10 -13 12 -22 7 -20 -10 3 -13 -1 -13 -19 0 -3 9 2 20 12 11 10 20
14 20 8 0 -5 24 -7 58 -5 31 2 65 5 74 5 9 1 16 4 16 7 -1 14 15 49 21 46 9
-6 7 151 -2 161 -5 4 -5 -1 -2 -12 3 -12 0 -9 -7 5 -7 14 -28 38 -45 53 -18
16 -30 34 -26 40 3 5 2 7 -4 4 -11 -7 -58 51 -49 60 8 8 37 -18 31 -27 -3 -5
-2 -11 3 -14 4 -2 8 9 7 25 0 16 -4 29 -8 29 -5 0 -5 6 -1 13 4 6 4 9 -1 5 -9
-9 -36 23 -29 34 8 12 42 9 50 -4 5 -7 3 -8 -6 -3 -10 6 -11 4 -4 -6 11 -17
16 -38 15 -64 0 -16 2 -17 9 -5 5 8 18 16 30 16 11 1 26 2 33 3 16 1 16 79 0
108 -10 16 -10 22 -1 25 7 3 5 7 -6 11 -10 4 -15 3 -11 -3 3 -6 2 -10 -4 -10
-5 0 -13 5 -16 11 -4 5 -36 9 -74 8 -59 -2 -69 -5 -86 -28z m83 -102 c12 -19
11 -19 -8 -9 -11 6 -20 15 -20 20 0 17 15 11 28 -11z"/>
<path d="M249 363 c-13 -16 -12 -17 4 -4 9 7 17 15 17 17 0 8 -8 3 -21 -13z"/>
<path d="M439 356 c26 -28 31 -31 31 -17 0 5 -12 17 -27 26 l-28 18 24 -27z"/>
<path d="M240 300 c-6 -11 -8 -20 -6 -20 3 0 10 9 16 20 6 11 8 20 6 20 -3 0
-10 -9 -16 -20z"/>
<path d="M319 303 c15 -29 14 -38 -3 -24 -11 9 -16 9 -22 -1 -4 -7 -3 -10 1
-5 5 4 16 0 26 -9 16 -15 17 -14 15 11 -2 14 -9 32 -16 38 -10 10 -10 8 -1
-10z"/>
<path d="M183 287 c14 -11 15 -16 5 -20 -7 -3 -3 -4 9 -4 25 1 21 12 -10 27
-20 10 -21 10 -4 -3z"/>
<path d="M266 288 c3 -5 10 -6 15 -3 13 9 11 12 -6 12 -8 0 -12 -4 -9 -9z"/>
<path d="M327 209 c7 -7 15 -10 18 -7 3 3 -2 9 -12 12 -14 6 -15 5 -6 -5z"/>
<path d="M220 164 c1 -13 29 -48 34 -43 2 2 -4 15 -15 28 -10 13 -19 19 -19
15z"/>
<path d="M346 78 c3 -5 10 -6 15 -3 13 9 11 12 -6 12 -8 0 -12 -4 -9 -9z"/>
<path d="M380 86 c0 -2 9 -6 20 -9 11 -3 18 -1 14 4 -5 9 -34 13 -34 5z"/>
<path d="M316 72 c-3 -5 1 -9 9 -9 8 0 12 4 9 9 -3 4 -7 8 -9 8 -2 0 -6 -4 -9
-8z"/>
</g>
</svg>
